<?xml version="1.0" standalone="no"?>
<!DOCTYPE svg PUBLIC "-//W3C//DTD SVG 20010904//EN"
 "http://www.w3.org/TR/2001/REC-SVG-20010904/DTD/svg10.dtd">
<svg version="1.0" xmlns="http://www.w3.org/2000/svg"
 width="1536.000000pt" height="1536.000000pt" viewBox="0 0 1536.000000 1536.000000"
 preserveAspectRatio="xMidYMid meet">

<g transform="translate(0.000000,1536.000000) scale(0.100000,-0.100000)"
fill="#000000" stroke="none">
<path d="M0 7680 l0 -7680 7680 0 7680 0 0 7680 0 7680 -7680 0 -7680 0 0
-7680z m11096 3376 c25 -25 34 -43 34 -67 0 -47 -30 -92 -75 -113 -97 -46
-210 56 -164 147 17 34 51 57 84 56 25 0 27 -1 12 -10 -9 -5 -26 -29 -37 -52
-18 -36 -18 -42 -5 -50 8 -4 15 -15 15 -24 0 -13 -3 -13 -15 -3 -11 9 -15 9
-15 1 0 -7 -5 -9 -11 -5 -6 3 -9 24 -7 45 4 46 1 49 -12 13 -11 -29 8 -81 28
-76 7 1 11 -4 10 -10 -2 -7 4 -13 12 -14 8 0 25 -3 37 -8 14 -4 36 0 60 11 51
24 72 81 49 131 -10 19 -30 39 -49 47 -28 13 -29 14 -8 15 13 0 37 -14 57 -34z
m-62 8 c27 -10 59 -72 52 -99 -4 -14 -11 -25 -17 -25 -6 0 -7 -6 -3 -12 4 -7
4 -10 -1 -6 -4 4 -17 1 -27 -7 -24 -16 -68 -1 -68 24 0 10 3 12 8 5 14 -22 47
-25 59 -4 8 12 9 21 3 25 -6 4 -8 11 -4 16 3 5 10 7 15 4 5 -4 9 -1 9 4 0 17
-30 13 -36 -4 -10 -25 -34 -17 -34 10 0 14 -4 25 -10 25 -18 0 -10 22 10 27
11 3 20 9 20 14 0 11 3 11 24 3z m-4869 -454 c191 -22 403 -83 560 -161 164
-80 380 -242 492 -367 65 -73 153 -186 153 -197 0 -3 13 -25 28 -48 44 -65 86
-145 116 -222 15 -38 32 -78 37 -87 12 -23 11 -28 -1 -28 -5 0 -10 7 -10 15 0
21 -30 31 -42 14 -7 -11 -11 -11 -15 -1 -2 6 -11 12 -19 12 -17 0 -19 -20 -1
-20 7 -1 5 -6 -5 -14 -10 -7 -18 -17 -18 -21 0 -4 -11 -16 -25 -27 -21 -16
-23 -22 -12 -39 10 -17 8 -23 -23 -49 -21 -18 -35 -39 -35 -53 0 -17 -5 -21
-23 -20 -16 2 -25 -4 -32 -23 -6 -14 -17 -32 -25 -40 -8 -9 -15 -22 -15 -30 0
-8 -10 -14 -25 -14 -31 0 -33 -25 -2 -35 20 -6 20 -8 3 -12 -10 -3 -22 1 -26
7 -11 17 -30 3 -23 -17 4 -10 -3 -22 -18 -34 -23 -17 -23 -17 -4 -40 l20 -22
-31 5 c-24 3 -31 1 -27 -9 3 -8 -2 -13 -13 -13 -22 -1 -64 -33 -64 -49 0 -6
-19 -11 -42 -11 l-43 -1 35 -18 35 -19 -28 -13 c-24 -11 -30 -11 -37 1 -7 12
-12 12 -21 3 -10 -10 -9 -14 4 -19 14 -5 14 -8 2 -20 -7 -8 -17 -14 -20 -14
-4 0 -16 -11 -27 -25 -11 -14 -23 -23 -28 -20 -26 16 -41 -135 -46 -480 -6
-477 -8 -462 -15 140 -7 601 -8 613 -69 774 -41 105 -109 207 -197 293 -64 64
-155 138 -168 138 -3 0 -22 11 -43 25 -20 13 -67 36 -104 49 l-68 26 0 -1043
0 -1042 -425 3 -425 2 0 1460 0 1460 382 0 c211 0 424 -5 473 -10z m3891 -53
c0 -32 -4 -61 -8 -63 -4 -3 -8 21 -9 53 -1 41 -3 51 -8 33 -7 -24 -7 -24 -13
-4 -4 15 -15 23 -39 25 -19 3 -199 1 -399 -4 -201 -4 -380 -8 -397 -8 -20 0
-33 -5 -33 -13 0 -8 -7 -19 -15 -26 -10 -9 -15 -9 -15 -1 0 6 6 11 13 11 8 0
7 4 -3 10 -8 5 -24 10 -35 10 -17 0 -18 -2 -5 -11 11 -7 2 -8 -31 -3 -32 4
-49 2 -54 -6 -6 -10 0 -11 21 -7 24 4 35 -1 66 -34 33 -35 41 -39 87 -39 28 0
51 -4 51 -9 0 -13 57 -31 96 -31 27 0 34 4 34 20 0 11 7 20 15 20 11 0 15 -11
15 -40 l0 -40 68 2 c48 1 55 3 25 5 -54 5 -61 33 -8 33 37 0 85 -18 85 -32 0
-4 9 -8 20 -8 11 0 20 -4 20 -10 0 -14 78 -12 82 2 2 6 15 -5 28 -26 18 -31
20 -40 9 -46 -7 -5 -10 -13 -5 -17 5 -4 11 -2 13 5 3 6 21 12 41 12 21 0 46 7
56 15 11 8 37 15 58 15 26 0 38 4 38 14 0 9 15 15 46 18 39 3 44 1 40 -14 -2
-10 1 -18 6 -18 7 0 9 19 6 50 -3 28 -1 50 3 50 5 0 10 -6 10 -12 1 -7 5 1 9
17 4 17 8 -82 9 -220 1 -137 4 -764 7 -1392 l7 -1143 -430 0 -430 0 5 1040 c3
742 1 1040 -6 1040 -14 0 -47 -13 -141 -57 -221 -102 -399 -319 -472 -578 -23
-79 -23 -89 -27 -762 l-3 -683 -425 0 -424 0 -2 508 c-2 852 0 909 56 1142 65
277 185 511 363 712 100 113 267 258 280 244 4 -4 1 -12 -7 -17 -13 -9 -13
-10 0 -6 8 2 15 12 15 21 0 42 268 182 457 240 220 66 299 73 823 72 l360 -1
1 -58z m-628 22 c-11 -6 -29 -6 -50 0 -32 9 -31 9 17 10 38 0 46 -2 33 -10z
m75 -106 c-13 -2 -33 -2 -45 0 -13 2 -3 4 22 4 25 0 35 -2 23 -4z m497 -3 c0
-5 -2 -10 -4 -10 -3 0 -8 5 -11 10 -3 6 -1 10 4 10 6 0 11 -4 11 -10z m-20
-30 c0 -5 7 -10 15 -10 17 0 20 -16 5 -25 -12 -8 -50 16 -50 32 0 7 7 13 15
13 8 0 15 -4 15 -10z m-158 -78 c-22 -22 -62 -38 -62 -25 0 13 70 55 78 48 2
-2 -5 -12 -16 -23z m-2255 -894 c-3 -8 -6 -5 -6 6 -1 11 2 17 5 13 3 -3 4 -12
1 -19z m-107 -17 c0 -5 -7 -11 -14 -14 -10 -4 -13 -1 -9 9 6 15 23 19 23 5z
m163 -180 c-7 -9 -12 6 -17 49 l-6 45 14 -45 c7 -25 11 -47 9 -49z m-756 -543
c-3 -8 -6 -5 -6 6 -1 11 2 17 5 13 3 -3 4 -12 1 -19z m-50 -960 c-3 -7 -5 -2
-5 12 0 14 2 19 5 13 2 -7 2 -19 0 -25z m964 -1400 c0 -249 0 -498 0 -553 0
-55 5 -116 12 -135 15 -42 63 -70 124 -70 23 0 44 -4 47 -8 2 -4 6 -48 7 -97
l2 -89 -49 -14 c-67 -18 -198 -10 -255 15 -63 28 -108 70 -133 122 -21 45 -21
57 -24 664 l-3 617 136 0 135 0 1 -452z m-1966 81 c157 -19 236 -72 275 -182
17 -49 20 -82 20 -254 l0 -198 -98 -2 c-53 -1 -181 -2 -283 -2 l-187 -1 0 -37
c-1 -58 16 -111 41 -128 18 -12 60 -15 239 -15 l218 0 4 -22 c3 -13 7 -57 10
-99 3 -42 8 -83 12 -93 6 -15 -19 -16 -290 -16 -280 0 -299 1 -341 21 -74 35
-131 92 -155 156 -20 54 -21 72 -18 353 3 292 3 296 28 344 30 58 98 121 160
148 78 34 220 45 365 27z m2554 -37 c88 -332 146 -566 153 -612 5 -42 21 -24
34 38 7 33 25 106 42 163 16 57 49 182 73 277 l43 172 115 0 116 0 32 -127
c72 -295 138 -543 144 -543 3 0 34 100 68 223 35 122 77 272 95 332 l32 110
142 3 c78 1 142 -1 142 -6 0 -5 -11 -46 -25 -93 -14 -46 -47 -158 -72 -249
-25 -91 -56 -203 -69 -250 -23 -79 -93 -351 -108 -412 l-6 -28 -184 0 c-182 0
-184 0 -190 23 -4 12 -15 54 -26 92 -73 280 -88 325 -101 325 -10 0 -71 -225
-113 -412 l-6 -28 -174 0 -174 0 -21 63 c-11 34 -36 123 -55 197 -63 247 -135
523 -170 652 -18 70 -32 128 -31 130 2 2 67 2 144 0 l141 -3 9 -37z m3396
-203 c-53 -129 -143 -344 -200 -479 -57 -135 -112 -267 -123 -295 -11 -27 -63
-153 -115 -280 l-95 -230 -152 -3 c-83 -1 -150 1 -148 5 18 38 34 75 78 183
94 229 131 315 140 324 5 5 3 25 -5 45 -8 20 -57 153 -110 296 -110 298 -231
619 -245 653 l-10 23 157 -3 156 -3 18 -55 c76 -239 122 -389 144 -470 45
-161 38 -154 68 -75 14 39 53 144 87 235 33 91 64 174 69 185 5 11 22 56 38
100 l29 80 154 5 c85 3 156 2 158 -1 1 -4 -40 -112 -93 -240z m-7661 227 c27
-8 65 -26 86 -40 l39 -25 46 26 c65 36 151 52 280 53 233 0 351 -62 400 -210
14 -41 16 -111 18 -442 l2 -393 -133 0 c-74 0 -136 3 -138 7 -3 4 -5 166 -4
358 0 315 -1 354 -17 380 -23 39 -64 54 -149 54 -59 0 -77 -4 -107 -24 -20
-14 -38 -34 -41 -45 -3 -11 -6 -179 -6 -372 l0 -353 -140 0 -139 0 -3 365 -3
365 -25 25 c-57 56 -219 53 -272 -5 l-28 -30 0 -360 0 -360 -124 0 c-68 0
-132 -3 -141 -6 -15 -6 -16 27 -13 402 l3 409 27 50 c14 28 40 65 57 83 34 37
117 78 183 91 74 15 290 13 342 -3z m2884 2 c53 -13 120 -55 152 -95 55 -71
55 -66 57 -507 0 -225 -1 -414 -3 -420 -3 -8 -104 -11 -327 -11 -284 1 -327 3
-361 18 -63 28 -104 64 -136 120 -29 51 -30 55 -30 193 0 155 11 238 37 266
14 16 33 18 143 18 70 0 189 3 264 7 l138 6 -4 79 c-3 65 -7 82 -23 94 -15 11
-64 14 -232 14 l-213 0 0 33 c0 17 -3 69 -7 115 l-6 82 252 0 c157 0 270 -4
299 -12z m3440 -18 c64 -30 98 -67 134 -146 21 -48 22 -60 25 -452 3 -346 1
-403 -11 -408 -8 -3 -158 -6 -333 -7 -315 -2 -319 -2 -370 22 -66 29 -116 83
-137 149 -14 42 -17 82 -14 216 3 163 3 166 29 192 35 35 134 46 369 42 l181
-3 -3 84 c-3 84 -3 85 -33 93 -16 5 -115 11 -220 13 -104 2 -193 4 -197 4 -10
1 -10 215 -1 225 4 4 123 6 264 5 l258 -1 59 -28z"/>
<path d="M11010 11035 c0 -9 6 -12 15 -9 8 4 15 10 15 15 0 5 -7 9 -15 9 -8 0
-15 -7 -15 -15z"/>
<path d="M7455 9680 c3 -5 8 -10 11 -10 2 0 4 5 4 10 0 6 -5 10 -11 10 -5 0
-7 -4 -4 -10z"/>
<path d="M7480 9579 c0 -11 5 -17 10 -14 6 3 10 13 10 21 0 8 -4 14 -10 14 -5
0 -10 -9 -10 -21z"/>
<path d="M7300 9330 c0 -5 5 -10 10 -10 6 0 10 5 10 10 0 6 -4 10 -10 10 -5 0
-10 -4 -10 -10z"/>
<path d="M6811 9044 c0 -11 3 -14 6 -6 3 7 2 16 -1 19 -3 4 -6 -2 -5 -13z"/>
<path d="M6833 8875 c0 -22 2 -30 4 -17 2 12 2 30 0 40 -3 9 -5 -1 -4 -23z"/>
<path d="M6850 8861 c0 -6 4 -13 10 -16 6 -3 7 1 4 9 -7 18 -14 21 -14 7z"/>
<path d="M6830 8810 c0 -5 5 -10 11 -10 5 0 7 5 4 10 -3 6 -8 10 -11 10 -2 0
-4 -4 -4 -10z"/>
<path d="M6082 7945 c0 -16 2 -22 5 -12 2 9 2 23 0 30 -3 6 -5 -1 -5 -18z"/>
<path d="M6129 7948 c-3 -15 -6 -65 -5 -112 1 -47 -2 -86 -5 -86 -3 0 -9 33
-13 72 -4 40 -11 77 -16 82 -7 7 -10 4 -10 -6 0 -11 -23 -23 -72 -39 -40 -12
-77 -26 -81 -29 -4 -4 -9 -26 -10 -48 -1 -23 -5 -42 -10 -42 -4 0 -5 5 -2 10
7 12 -9 13 -45 3 l-25 -7 25 -7 c15 -4 -14 -7 -69 -8 -160 -2 -96 -10 112 -15
118 -2 199 0 203 5 3 6 14 7 25 4 18 -6 19 -1 18 62 -2 104 -13 194 -20 161z
m-29 -134 c0 -8 -4 -12 -10 -9 -5 3 -10 10 -10 16 0 5 5 9 10 9 6 0 10 -7 10
-16z m-25 -70 c17 -8 21 -11 10 -8 -11 4 -49 10 -85 14 l-65 7 55 1 c30 1 69
-6 85 -14z"/>
<path d="M5985 7890 c3 -5 8 -10 11 -10 2 0 4 5 4 10 0 6 -5 10 -11 10 -5 0
-7 -4 -4 -10z"/>
<path d="M5373 7723 c9 -2 25 -2 35 0 9 3 1 5 -18 5 -19 0 -27 -2 -17 -5z"/>
<path d="M5530 7720 c8 -5 22 -10 30 -10 13 0 13 1 0 10 -8 5 -22 10 -30 10
-13 0 -13 -1 0 -10z"/>
<path d="M8875 10533 c-22 -9 -42 -18 -44 -19 -6 -6 21 -34 32 -34 6 0 2 7 -9
16 -18 14 -18 15 6 8 14 -4 28 -11 31 -16 3 -5 17 -5 32 1 20 8 27 18 27 36 0
30 -16 31 -75 8z m59 -18 c-4 -8 -15 -15 -25 -15 -21 0 -26 16 -6 23 24 10 36
7 31 -8z"/>
<path d="M8985 10510 c-16 -7 -13 -9 18 -9 20 -1 37 4 37 9 0 12 -27 12 -55 0z"/>
<path d="M8780 10490 c0 -5 7 -7 15 -4 8 4 15 8 15 10 0 2 -7 4 -15 4 -8 0
-15 -4 -15 -10z"/>
<path d="M9920 10330 c0 -5 18 -10 39 -10 22 0 42 -5 44 -12 3 -7 6 -4 6 7 1
17 -6 20 -44 23 -26 2 -45 -2 -45 -8z"/>
<path d="M10002 10245 c0 -16 2 -22 5 -12 2 9 2 23 0 30 -3 6 -5 -1 -5 -18z"/>
<path d="M5580 6201 c-29 -8 -37 -35 -39 -123 l-1 -58 150 0 150 0 0 89 c0 84
-1 89 -22 95 -31 8 -207 6 -238 -3z"/>
<path d="M6627 5813 c-4 -3 -7 -37 -7 -75 0 -103 8 -108 170 -108 l130 0 0 95
0 95 -143 0 c-79 0 -147 -3 -150 -7z"/>
<path d="M10142 5821 c-115 -6 -125 -8 -143 -30 -23 -28 -24 -52 -5 -90 28
-53 59 -65 193 -69 l121 -4 -5 93 c-4 83 -14 114 -33 107 -3 -1 -61 -4 -128
-7z"/>
</g>
</svg>
